<svg width="60px" height="50px" viewBox="0 0 60 50" version="1.1">
    <g id="Page-1" stroke="none" stroke-width="1" fill="none" fill-rule="evenodd">
        <g id="Desktop" transform="translate(-53.000000, -23.000000)">
            <g id="home_work-24px" transform="translate(51.000000, 16.000000)">
                <polygon id="Path" points="0 0 64 0 64 64 0 64"></polygon>
                <polygon id="Path" fill="#000000" points="21.5707429 15.36 2.56 28.1566536 2.56 56.32 15.8171429 56.32 15.8171429 34.9030065 26.4228571 34.9030065 26.4228571 56.32 39.68 56.32 39.68 27.540915"></polygon>
                <polygon id="Path" points="46.08 19.2 51.2 19.2 51.2 24.32 46.08 24.32"></polygon>
                <path d="M26.88,7.68 L26.88,11.7603556 L32.1969231,15.3543111 L36.7960615,18.4888889 L40.1723077,18.4888889 L40.1723077,20.7857778 L45.4892308,24.4067556 L45.4892308,29.2977778 L50.8061538,29.2977778 L50.8061538,34.7022222 L45.4892308,34.7022222 L45.4892308,40.1066667 L50.8061538,40.1066667 L50.8061538,45.5111111 L45.4892308,45.5111111 L45.4892308,56.32 L61.44,56.32 L61.44,7.68 L26.88,7.68 Z M50.8061538,23.8933333 L45.4892308,23.8933333 L45.4892308,18.4888889 L50.8061538,18.4888889 L50.8061538,23.8933333 Z" id="Shape" fill="#000000" fill-rule="nonzero"></path>
            </g>
        </g>
    </g>
</svg>