<svg width="58px" height="58px" viewBox="0 0 58 58">
    <g stroke="none" stroke-width="1" fill="none" fill-rule="evenodd">
        <g transform="translate(-407.000000, -798.000000)" fill="#FFFFFF">
            <path d="M409.19244,855.950086 L429.073883,855.950086 C429.17354,855.950086 429.323024,856 429.42268,856 L442.876289,856 C442.975945,856 443.12543,856 443.225086,855.950086 L462.957045,855.950086 C464.103093,855.950086 465,855.051635 465,853.903614 L465,826.950086 C465,826.800344 465,826.700516 464.950172,826.550775 C464.950172,826.450947 464.900344,826.401033 464.850515,826.301205 C464.850515,826.251291 464.850515,826.201377 464.800687,826.201377 C464.750859,826.101549 464.701031,826.001721 464.651203,825.951807 C464.651203,825.901893 464.601375,825.901893 464.601375,825.851979 C464.551546,825.752151 464.45189,825.652324 464.352234,825.552496 L437.445017,798.598967 C436.647766,797.800344 435.352234,797.800344 434.554983,798.598967 L407.647766,825.552496 C407.54811,825.652324 407.448454,825.752151 407.398625,825.851979 C407.398625,825.901893 407.348797,825.901893 407.348797,825.951807 C407.298969,826.051635 407.249141,826.101549 407.199313,826.201377 C407.199313,826.251291 407.149485,826.301205 407.149485,826.351119 C407.099656,826.450947 407.099656,826.500861 407.049828,826.600688 C407,826.75043 407,826.850258 407,827 L407,853.953528 C407.199313,855.051635 408.09622,855.950086 409.19244,855.950086 L409.19244,855.950086 Z M440.833333,851.857143 L431.465636,851.857143 L431.465636,842.473322 L440.833333,842.473322 L440.833333,851.857143 L440.833333,851.857143 Z M436.099656,802.94148 L458.073883,824.953528 L414.12543,824.953528 L436.099656,802.94148 L436.099656,802.94148 Z M411.235395,829.046472 L460.914089,829.046472 L460.914089,851.907057 L444.919244,851.907057 L444.919244,840.42685 C444.919244,839.27883 444.022337,838.380379 442.876289,838.380379 L429.42268,838.380379 C428.276632,838.380379 427.379725,839.27883 427.379725,840.42685 L427.379725,851.857143 L411.235395,851.857143 L411.235395,829.046472 L411.235395,829.046472 Z" id="home"></path>
        </g>
    </g>
</svg>